<svg height="511pt" viewBox="0 -128 511.99967 511" width="511pt" xmlns="http://www.w3.org/2000/svg"><path d="m203.523438 38.8125c-1.558594 0-3.132813-.460938-4.507813-1.421875-.433594-.304687-4.359375-3.105469-8.320313-7.757813-5.703124-6.699218-8.714843-14.050781-8.714843-21.261718 0-4.347656 3.523437-7.871094 7.871093-7.871094 4.347657 0 7.871094 3.523438 7.871094 7.871094 0 8.515625 10.21875 16.050781 10.324219 16.121094 3.5625 2.492187 4.425781 7.402343 1.933594 10.964843-1.53125 2.1875-3.976563 3.355469-6.457031 3.355469zm0 0" fill="#1e2628"/><path d="m501.066406 186.769531-78.261718 47.011719-134.050782 8.210938-56.261718-6.960938-9.46875-1.175781h-.011719l-66.945313-8.28125h-117.636718l-19.25-32.800781c-38.40625-47.855469 8.300781-126.558594 8.300781-126.558594s34.199219 34.199218 99.183593 26.671875c24.582032-2.84375 42.21875-13.328125 54.636719-25.285157 2.402344-2.289062 4.59375-4.648437 6.621094-7.011718 1.394531-1.636719 2.707031-3.285156 3.9375-4.914063 12.113281-16.089843 16.183594-31.183593 16.183594-31.183593 44.832031 32.664062 81.800781 56.0625 112.652343 72.917968 2.757813 1.503906 5.46875 2.960938 8.132813 4.367188 2.203125 1.164062 4.367187 2.289062 6.507813 3.378906 80.078124 40.992188 115.210937 35.09375 142.1875 40.394531 38.300781 7.523438 23.542968 41.21875 23.542968 41.21875zm0 0" fill="#515a5e"/><path d="m335.335938 105.15625-4.976563 29.109375c-.007813.074219-.019531.144531-.039063.210937-1.199218 6.023438-5.300781 11.007813-10.96875 13.359376-2.269531.945312-4.664062 1.40625-7.035156 1.40625-1.183594 0-2.359375-.113282-3.527344-.34375-2.339843-.464844-4.605468-1.375-6.652343-2.742188l-7.589844-4.933594-113.246094-73.621094c2.402344-2.289062 4.59375-4.648437 6.621094-7.011718 1.394531-1.636719 2.707031-3.285156 3.9375-4.914063l118.9375 77.328125c1.078125.726563 2.046875.484375 2.527344.285156.460937-.1875 1.28125-.683593 1.542969-1.828124l5.828124-34.050782c2.757813 1.503906 5.46875 2.960938 8.132813 4.367188 2.203125 1.167968 4.367187 2.289062 6.507813 3.378906zm0 0" fill="#1e2628"/><path d="m217.144531 228.632812 83.492188-94.253906 11.785156 10.441406-83.488281 94.253907zm0 0" fill="#1e2628"/><path d="m75.367188 196.15625c-27.359376-21.203125 3.171874-105.285156 3.171874-105.285156-33.617187-7.234375-51.050781-24.664063-51.050781-24.664063s-46.710937 78.703125-8.304687 126.558594l19.25 32.800781h49.386718zm0 0" fill="#343c3f"/><path d="m328.832031 101.773438-6.234375 31.164062c-1.457031 7.316406-9.886718 10.804688-16.089844 6.667969l-118.582031-79.019531c15.179688-17.78125 20.125-36.097657 20.125-36.097657 48.839844 35.59375 88.359375 60.175781 120.78125 77.285157zm0 0" fill="#343c3f"/><path d="m507.601562 207.570312c-25.214843 18.789063-88.601562 41.734376-178.496093 46.730469-98.488281 5.46875-98.488281-19.15625-166.882813-8.207031-25.59375 4.09375-54.816406 4.164062-81.382812 2.65625-30.269532-1.734375-57.078125-5.511719-71.09375-7.75-5.855469-.933594-10.054688-6.148438-9.7265628-12.078125l1.4257808-26.042969c.378907-6.898437 6.675782-11.914062 13.5-10.769531 11.34375 1.886719 30.796876 4.050781 60.417969 4.050781 1.792969 0 3.621094.011719 5.476563.050782 52.378906.832031 124.933594 13.269531 157.304687 22.515624 51.390625 14.6875 149.996094 16.324219 258.59375-30.082031 5.886719-2.507812 12.667969.578125 14.695313 6.65625 1.5 4.492188-.042969 9.445313-3.832032 12.269531zm0 0" fill="#cce6f6"/><path d="m80.839844 196.210938v52.539062c-30.269532-1.734375-57.078125-5.511719-71.09375-7.75-5.855469-.933594-10.054688-6.148438-9.7265628-12.078125l1.4257808-26.042969c.378907-6.898437 6.675782-11.914062 13.5-10.769531 11.34375 1.886719 30.796876 4.050781 60.417969 4.050781 1.792969 0 3.621094.011719 5.476563.050782zm0 0" fill="#9dcae0"/><g fill="#cce6f6"><path d="m228.5625 67.933594c-1.523438 0-3.058594-.441406-4.410156-1.359375-3.597656-2.4375-4.539063-7.332031-2.101563-10.933594l14.363281-21.199219c2.4375-3.601562 7.332032-4.542968 10.929688-2.101562 3.601562 2.4375 4.542969 7.332031 2.105469 10.929687l-14.363281 21.203125c-1.523438 2.246094-4 3.460938-6.523438 3.460938zm0 0"/><path d="m250.316406 82.648438c-1.519531 0-3.054687-.4375-4.40625-1.355469-3.601562-2.4375-4.542968-7.332031-2.105468-10.933594l14.363281-21.203125c2.4375-3.597656 7.335937-4.539062 10.933593-2.101562 3.601563 2.4375 4.539063 7.332031 2.101563 10.933593l-14.363281 21.203125c-1.519532 2.246094-4 3.457032-6.523438 3.457032zm0 0"/><path d="m273.890625 99.382812c-1.519531 0-3.058594-.441406-4.410156-1.355468-3.597657-2.441406-4.539063-7.335938-2.101563-10.933594l14.363282-21.203125c2.4375-3.597656 7.335937-4.542969 10.933593-2.101563 3.597657 2.4375 4.539063 7.332032 2.101563 10.933594l-14.363282 21.199219c-1.519531 2.246094-4 3.460937-6.523437 3.460937zm0 0"/><path d="m297.460938 113.855469c-1.519532 0-3.054688-.4375-4.40625-1.355469-3.601563-2.4375-4.542969-7.332031-2.105469-10.933594l14.363281-21.203125c2.4375-3.597656 7.335938-4.539062 10.933594-2.101562 3.601562 2.4375 4.539062 7.332031 2.101562 10.933593l-14.363281 21.203126c-1.519531 2.246093-4 3.457031-6.523437 3.457031zm0 0"/></g></svg>